PathFileType	4	(X/Y/Z)	/Users/itak/Documents/Research/Walk-IL/dataset/trc/00268_00010.trc
DataRate	CameraRate	NumFrames	NumMarkers	Units	OrigDataRate	OrigDataStartFrame	OrigNumFrames
100.000000	100.000000	4	53	mm	100.000000	424	485
Frame#	Time	RPSI			LPSI			L3			STRN			T10			C7			CLAV			RBAK			LBAK			LSHO			LUPA			LAEL			LAOL			LWTS			LWPS			LFRA			LIFD			LHPS			LHTS			RSHO			RUPA			RAEL			RAOL			RWTS			RWPS			RFRA			RIFD			RHTS			RHPS			RBHD			LFHD			RFHD			LBHD			LHIP			RHIP			RASI			LKNE			LANK			LTIP			LTOE			LMT1			LMT5			LHEE			RKNE			RTHI			RANK			RTIP			RTOE			RMT1			RMT5			RHEE			LTHI			LASI			
		X1	Y1	Z1	X2	Y2	Z2	X3	Y3	Z3	X4	Y4	Z4	X5	Y5	Z5	X6	Y6	Z6	X7	Y7	Z7	X8	Y8	Z8	X9	Y9	Z9	X10	Y10	Z10	X11	Y11	Z11	X12	Y12	Z12	X13	Y13	Z13	X14	Y14	Z14	X15	Y15	Z15	X16	Y16	Z16	X17	Y17	Z17	X18	Y18	Z18	X19	Y19	Z19	X20	Y20	Z20	X21	Y21	Z21	X22	Y22	Z22	X23	Y23	Z23	X24	Y24	Z24	X25	Y25	Z25	X26	Y26	Z26	X27	Y27	Z27	X28	Y28	Z28	X29	Y29	Z29	X30	Y30	Z30	X31	Y31	Z31	X32	Y32	Z32	X33	Y33	Z33	X34	Y34	Z34	X35	Y35	Z35	X36	Y36	Z36	X37	Y37	Z37	X38	Y38	Z38	X39	Y39	Z39	X40	Y40	Z40	X41	Y41	Z41	X42	Y42	Z42	X43	Y43	Z43	X44	Y44	Z44	X45	Y45	Z45	X46	Y46	Z46	X47	Y47	Z47	X48	Y48	Z48	X49	Y49	Z49	X50	Y50	Z50	X51	Y51	Z51	X52	Y52	Z52	X53	Y53	Z53	

425	4.24	-1320.225708007812	1014.742858886719	250.1833801269531	-1311.177612304688	1008.83203125	74.23355865478516	-1290.032104492188	1085.915283203125	162.0747528076172	-1025.04736328125	1242.7705078125	178.8492889404297	-1293.03857421875	1200.681640625	162.0592803955078	-1228.566528320312	1441.288452148438	147.4048919677734	-1078.634155273438	1348.896728515625	169.7151794433594	-1294.799560546875	1308.470581054688	222.7177124023438	-1237.037109375	1404.311401367188	40.49860763549805	-1138.90283203125	1403.372436523438	-2.460390090942383	-1166.522338867188	1288.892211914062	-78.88077545166016	-1186.946411132812	1089.49658203125	-100.7642364501953	-1257.776489257812	1082.076049804688	-50.5369873046875	-1128.516479492188	865.46875	-58.90019607543945	-1161.404296875	857.7296142578125	-122.8232650756836	-1182.762939453125	985.625244140625	-112.7323608398438	-1137.893920898438	677.548583984375	-67.4300537109375	-1163.4970703125	769.1783447265625	-123.1642150878906	-1109.880493164062	766.2943115234375	-83.02635192871094	-1174.556884765625	1417.49267578125	312.9071960449219	-1191.626953125	1366.01171875	383.0482177734375	-1260.775756835938	1110.063354492188	433.0025329589844	-1285.631225585938	1103.635498046875	340.2383422851562	-1206.025756835938	868.5804443359375	409.2474365234375	-1263.433227539062	878.728759765625	471.6883544921875	-1256.02734375	1040.505126953125	451.2536926269531	-1244.157470703125	686.9619140625	417.7658386230469	-1207.607299804688	751.2972412109375	436.6024780273438	-1265.126831054688	765.4507446289062	476.5052185058594	-1208.111206054688	1587.080810546875	227.9308929443359	-1038.200561523438	1637.650512695312	109.8265609741211	-1039.856201171875	1633.4345703125	202.635498046875	-1203.967529296875	1582.972412109375	81.2230224609375	-1236.681030273438	959.7461547851562	-16.65964508056641	-1222.025268554688	958.4959716796875	359.8158264160156	-1103.54736328125	954.1951904296875	293.6700439453125	-1138.674194335938	490.6570739746094	3.860866785049438	-1310.583618164062	61.45637893676758	24.854736328125	-1229.767578125	273.5521850585938	0.5127261281013489	-1113.291870117188	59.32784271240234	96.70145416259766	-1182.24658203125	48.10381698608398	132.03955078125	-1187.256958007812	51.50629043579102	20.11448287963867	-1359.774047851562	64.81046295166016	79.30928039550781	-1207.518676757812	482.3737182617188	304.9806213378906	-1169.299560546875	743.907470703125	348.1659240722656	-1286.891723632812	43.43556976318359	255.3170318603516	-1205.575317382812	360.2124328613281	284.0292358398438	-1093.201538085938	53.19164657592773	196.9031066894531	-1151.217895507812	48.14563369750977	159.7772827148438	-1179.83642578125	39.94892501831055	274.7878723144531	-1341.784057617188	39.9027214050293	204.0567932128906	-1157.158569335938	634.1939697265625	-14.8254919052124	-1102.645263671875	960.6653442382812	42.66917037963867	
426	4.25	-1320.545166015625	1014.51025390625	249.9293212890625	-1311.880615234375	1008.54931640625	74.02457427978516	-1290.956420898438	1085.41455078125	161.5699920654297	-1026.65576171875	1243.246948242188	178.2666168212891	-1294.375122070312	1200.10693359375	161.3303680419922	-1230.976684570312	1440.977905273438	146.2596588134766	-1080.71142578125	1349.131713867188	168.9179534912109	-1296.7021484375	1308.004150390625	221.837890625	-1239.16748046875	1403.728637695312	39.37727737426758	-1140.918090820312	1402.96728515625	-3.367334604263306	-1167.486328125	1287.987670898438	-79.43023681640625	-1186.277954101562	1088.189819335938	-100.3356399536133	-1257.718627929688	1080.768798828125	-50.86375045776367	-1126.274536132812	865.215576171875	-55.80649566650391	-1158.076538085938	856.6459350585938	-120.1568374633789	-1180.969482421875	984.3995971679688	-111.3548812866211	-1133.659545898438	677.1039428710938	-63.02035522460938	-1159.296264648438	768.08447265625	-119.8550186157227	-1106.375366210938	766.0331420898438	-78.87911224365234	-1177.002197265625	1417.756713867188	311.848876953125	-1193.881713867188	1366.33935546875	382.1359252929688	-1261.908081054688	1110.2001953125	432.4369812011719	-1286.946899414062	1103.663452148438	339.75439453125	-1204.226440429688	869.47314453125	408.4086303710938	-1261.696411132812	878.6827392578125	471.0101318359375	-1256.578002929688	1040.600341796875	450.6949768066406	-1239.345458984375	687.2882690429688	416.8193359375	-1203.861938476562	752.1472778320312	435.6407775878906	-1261.605834960938	765.361083984375	475.6394958496094	-1210.437622070312	1587.35986328125	226.5550079345703	-1040.326416015625	1637.4189453125	108.5341110229492	-1042.090698242188	1633.388916015625	201.3688201904297	-1206.157592773438	1582.988403320312	79.87885284423828	-1237.509765625	959.2772216796875	-16.94686508178711	-1221.667358398438	958.526611328125	359.4831237792969	-1103.875732421875	954.2429809570312	292.999267578125	-1146.402465820312	489.6043090820312	4.312166213989258	-1311.251586914062	58.14479446411133	26.91703224182129	-1234.580322265625	271.4861450195312	1.966527581214905	-1112.901977539062	58.16107940673828	96.79045867919922	-1181.375122070312	46.21772384643555	132.6522979736328	-1187.47021484375	50.38573837280273	20.57577896118164	-1359.903686523438	60.50576400756836	81.83714294433594	-1207.82470703125	482.48046875	304.5160827636719	-1169.273559570312	743.9651489257812	347.4721069335938	-1286.838745117188	43.47639465332031	255.3269805908203	-1205.903686523438	360.3496398925781	283.8052368164062	-1093.067626953125	52.88420867919922	196.9138793945312	-1151.135498046875	48.13663101196289	159.72802734375	-1179.78173828125	39.90876388549805	274.7481689453125	-1341.725830078125	39.98226547241211	204.0879364013672	-1162.575439453125	633.3505249023438	-14.82017040252686	-1103.425170898438	960.4154052734375	41.91025161743164	
427	4.26	-1320.805419921875	1014.243957519531	249.6053314208984	-1312.6064453125	1008.092224121094	73.75763702392578	-1291.848510742188	1084.79248046875	160.9817962646484	-1028.27099609375	1243.635375976562	177.6015319824219	-1295.73291015625	1199.448364257812	160.54248046875	-1233.394409179688	1440.59423828125	145.0938568115234	-1082.784790039062	1349.28076171875	168.0621795654297	-1298.582885742188	1307.428466796875	220.9358673095703	-1241.3212890625	1403.059692382812	38.21909713745117	-1142.96142578125	1402.452514648438	-4.338776588439941	-1168.476196289062	1286.951782226562	-80.00968933105469	-1185.609375	1086.771850585938	-99.89478302001953	-1257.642822265625	1079.318237304688	-51.19546127319336	-1123.991821289062	864.9134521484375	-52.69218444824219	-1154.744018554688	855.5147094726562	-117.4543838500977	-1179.162719726562	983.0807495117188	-109.9518280029297	-1129.37109375	676.646484375	-58.66086578369141	-1155.036743164062	766.96240234375	-116.5165786743164	-1102.80810546875	765.7601928710938	-74.72768402099609	-1179.417724609375	1417.889770507812	310.765380859375	-1196.072998046875	1366.495483398438	381.1795654296875	-1262.831909179688	1110.124877929688	431.8620910644531	-1288.116333007812	1103.493286132812	339.2723693847656	-1202.186279296875	870.2252807617188	407.4835205078125	-1259.607055664062	878.5130615234375	470.3029479980469	-1256.827758789062	1040.504638671875	450.1117553710938	-1234.274536132812	687.5264892578125	415.8678588867188	-1199.838989257812	752.8864135742188	434.6160583496094	-1257.739135742188	765.184814453125	474.7668151855469	-1212.719482421875	1587.6025390625	225.1284942626953	-1042.414916992188	1637.092163085938	107.1782760620117	-1044.279174804688	1633.2724609375	200.0390167236328	-1208.32958984375	1582.943115234375	78.49797821044922	-1238.379150390625	958.6229248046875	-17.30177879333496	-1221.30078125	958.5927734375	359.0540466308594	-1104.03369140625	954.3118286132812	292.2223510742188	-1153.674926757812	488.6369934082031	4.894591808319092	-1312.019287109375	55.41498947143555	28.693603515625	-1239.160522460938	269.7388916015625	3.406210899353027	-1112.675170898438	56.86534118652344	96.99636840820312	-1180.751098632812	44.46622085571289	133.1872711181641	-1187.808959960938	49.62630462646484	20.97418212890625	-1360.222412109375	56.76456451416016	83.99549102783203	-1208.362182617188	482.6131286621094	304.0757751464844	-1169.35546875	744.0177612304688	346.7486267089844	-1286.8017578125	43.50484466552734	255.3485717773438	-1206.432250976562	360.5357971191406	283.6011352539062	-1092.962646484375	52.64608764648438	196.9123077392578	-1151.094604492188	48.17872619628906	159.6719970703125	-1179.734985351562	39.87914276123047	274.7152099609375	-1341.670166015625	40.05113983154297	204.1215362548828	-1167.750244140625	632.4655151367188	-14.71971988677979	-1104.227661132812	960.041748046875	41.0604362487793	
428	4.27	-1321.000122070312	1013.971435546875	249.2411041259766	-1313.377563476562	1007.521240234375	73.43486022949219	-1292.710083007812	1084.08154296875	160.3295745849609	-1029.905151367188	1243.946044921875	176.8426513671875	-1297.10888671875	1198.724853515625	159.7007598876953	-1235.818481445312	1440.156982421875	143.9138946533203	-1084.851318359375	1349.359741210938	167.1435394287109	-1300.439575195312	1306.763793945312	219.9989166259766	-1243.503540039062	1402.329345703125	37.02880477905273	-1145.041870117188	1401.851684570312	-5.377565383911133	-1169.511474609375	1285.809204101562	-80.62631988525391	-1184.942993164062	1085.2626953125	-99.45938873291016	-1257.5478515625	1077.744750976562	-51.5403938293457	-1121.692504882812	864.5709838867188	-49.57858657836914	-1151.44287109375	854.3499755859375	-114.7325897216797	-1177.358276367188	981.685302734375	-108.5358505249023	-1125.068237304688	676.20166015625	-54.37252426147461	-1150.749267578125	765.8243408203125	-113.1540832519531	-1099.193115234375	765.4896240234375	-70.59320831298828	-1181.811157226562	1417.900512695312	309.6640014648438	-1198.213012695312	1366.489624023438	380.1776428222656	-1263.554321289062	1109.849487304688	431.2726745605469	-1289.127197265625	1103.113525390625	338.7803649902344	-1199.918212890625	870.845703125	406.4896240234375	-1257.189086914062	878.2261962890625	469.5646057128906	-1256.775390625	1040.2255859375	449.4993591308594	-1228.988159179688	687.68115234375	414.9027709960938	-1195.572143554688	753.5264892578125	433.5379028320312	-1253.551879882812	764.9302368164062	473.8853149414062	-1214.953735351562	1587.83740234375	223.6661834716797	-1044.46533203125	1636.696044921875	105.7593460083008	-1046.413940429688	1633.105224609375	198.6442718505859	-1210.485473632812	1582.862182617188	77.08998107910156	-1239.3173828125	957.8370361328125	-17.71327018737793	-1220.951293945312	958.7013549804688	358.5323181152344	-1104.010620117188	954.4256591796875	291.3328247070312	-1160.425903320312	487.7811279296875	5.608053207397461	-1312.831665039062	53.23352813720703	30.16245460510254	-1243.43505859375	268.3043212890625	4.807712554931641	-1112.549194335938	55.41875076293945	97.36576843261719	-1180.346923828125	42.85475921630859	133.6927337646484	-1188.224609375	49.15684509277344	21.37166023254395	-1360.683837890625	53.55448150634766	85.73838806152344	-1209.129760742188	482.7684631347656	303.6679382324219	-1169.497436523438	744.0753173828125	346.0249633789062	-1286.777587890625	43.51802062988281	255.3824462890625	-1207.166137695312	360.7794189453125	283.4168090820312	-1092.892211914062	52.46869659423828	196.8993835449219	-1151.098754882812	48.25982666015625	159.6175842285156	-1179.698364257812	39.85695266723633	274.6908264160156	-1341.616821289062	40.10866546630859	204.1585693359375	-1172.618408203125	631.5792236328125	-14.49655437469482	-1105.048461914062	959.5819091796875	40.12238311767578	
